<?xml version="1.0" encoding="utf-8"?>
<!-- Generator: Adobe Adobe Illustrator 28.6.0, SVG Export Plug-In . SVG Version: 6.00 Build 0)  -->
<svg version="1.1" id="Layer_3" xmlns="http://www.w3.org/2000/svg" xmlns:xlink="http://www.w3.org/1999/xlink" x="0px" y="0px"
	 viewBox="0 0 800 800" style="enable-background:new 0 0 800 800;" xml:space="preserve">
<style>
  :root {
    --svg-fill-color: black;
  }
  @media (prefers-color-scheme: dark) {
    :root {
      --svg-fill-color: white;
    }
  }
</style>
<g fill="var(--svg-fill-color)">
	<g>
		<g>
			<polygon points="353.66,602.65 353.66,446.34 197.35,446.34 			"/>
			<polygon points="446.34,353.66 602.65,353.66 446.34,197.35 			"/>
			<path d="M692,0H108C48.35,0,0,48.35,0,108v584c0,59.65,48.35,108,108,108h584c59.65,0,108-48.35,108-108V108
				C800,48.35,751.65,0,692,0z M728.04,405.6c-10.25,24.75-34.19,40.74-60.97,40.74H446.34v220.72c0,26.79-15.99,50.72-40.74,60.97
				c-8.21,3.4-16.81,5.06-25.32,5.06c-17.14,0-33.94-6.71-46.6-19.36L86.27,466.32c-18.94-18.94-24.56-47.17-14.31-71.92
				c10.25-24.75,34.19-40.74,60.97-40.74h220.72V132.94c0-26.79,15.99-50.72,40.74-60.97c24.75-10.25,52.98-4.64,71.92,14.31
				l247.4,247.41C732.67,352.62,738.29,380.85,728.04,405.6z"/>
		</g>
	</g>
</g>
</svg>